####
#
# OBJ File Generated by Meshlab
#
####
# Object 3.obj
#
# Vertices: 30
# Faces: 58
#
####
vn 0.000000 -0.034440 -0.083150
v 0.000000 -0.006900 -0.003750
vn -0.000103 0.034720 0.083033
v 0.000000 0.006900 0.003750
vn 0.004059 0.000023 0.089908
v 0.014400 0.000000 0.003750
vn -0.027586 -0.079879 -0.030958
v -0.014400 -0.007500 -0.003150
vn -0.088742 0.014994 0.000252
v -0.015000 0.006900 0.000000
vn -0.060594 0.058587 0.031560
v -0.014902 0.007228 0.003150
vn 0.000000 -0.000004 0.090000
v -0.014400 0.000000 0.003750
vn 0.030741 -0.078807 0.030732
v 0.014400 -0.007500 0.003150
vn 0.030752 -0.030740 -0.078800
v 0.014400 -0.006900 -0.003750
vn 0.079153 0.029890 -0.030681
v 0.015000 0.006900 -0.003150
vn 0.030094 0.079011 -0.030848
v 0.014400 0.007500 -0.003150
vn 0.000000 -0.083149 -0.034442
v 0.000000 -0.007500 -0.003150
vn -0.000331 0.083245 -0.034208
v 0.000000 0.007500 -0.003150
vn -0.000478 0.083135 0.034473
v 0.000000 0.007500 0.003150
vn -0.078822 -0.030697 0.030736
v -0.015000 -0.006900 0.003150
vn -0.030743 -0.030744 0.078801
v -0.014400 -0.006900 0.003750
vn -0.030743 -0.078802 0.030743
v -0.014400 -0.007500 0.003150
vn -0.076950 -0.035011 -0.030868
v -0.014990 -0.007009 -0.003150
vn -0.030114 -0.030025 -0.079320
v -0.014400 -0.006900 -0.003750
vn -0.026056 0.031236 -0.080283
v -0.014400 0.006900 -0.003750
vn -0.028929 0.080042 -0.029265
v -0.014400 0.007500 -0.003150
vn -0.075953 0.030668 -0.037291
v -0.014980 0.006900 -0.003305
vn -0.029349 0.037959 0.076143
v -0.014400 0.006900 0.003750
vn 0.030745 -0.078800 -0.030745
v 0.014400 -0.007500 -0.003150
vn 0.078945 -0.030539 -0.030578
v 0.015000 -0.006900 -0.003150
vn 0.030899 -0.030567 0.078809
v 0.014400 -0.006900 0.003750
vn 0.078984 -0.030267 0.030748
v 0.015000 -0.006900 0.003150
vn 0.030743 0.030744 -0.078801
v 0.014400 0.006900 -0.003750
vn 0.038159 0.032131 0.074910
v 0.014509 0.006900 0.003740
vn 0.059630 0.060528 0.029676
v 0.014824 0.007324 0.003150
# 30 vertices, 0 vertices normals

f 5//5 15//15 6//6
f 22//22 18//18 5//5
f 15//15 5//5 18//18
f 30//30 27//27 25//25
f 30//30 25//25 10//10
f 8//8 17//17 4//4
f 8//8 4//4 12//12
f 8//8 12//12 24//24
f 20//20 1//1 19//19
f 9//9 1//1 28//28
f 20//20 28//28 1//1
f 13//13 21//21 6//6
f 13//13 6//6 14//14
f 11//11 13//13 14//14
f 11//11 14//14 30//30
f 7//7 2//2 23//23
f 3//3 29//29 2//2
f 16//16 26//26 2//2
f 26//26 3//3 2//2
f 7//7 16//16 2//2
f 4//4 15//15 18//18
f 4//4 17//17 15//15
f 20//20 18//18 22//22
f 20//20 19//19 18//18
f 6//6 21//21 22//22
f 5//5 6//6 22//22
f 23//23 15//15 16//16
f 23//23 16//16 7//7
f 15//15 23//23 6//6
f 24//24 25//25 8//8
f 25//25 27//27 8//8
f 28//28 10//10 25//25
f 28//28 25//25 9//9
f 30//30 10//10 11//11
f 26//26 27//27 30//30
f 26//26 30//30 29//29
f 26//26 29//29 3//3
f 24//24 4//4 12//12
f 9//9 24//24 12//12
f 4//4 24//24 12//12
f 1//1 12//12 19//19
f 9//9 12//12 1//1
f 12//12 4//4 19//19
f 13//13 28//28 20//20
f 28//28 13//13 11//11
f 13//13 20//20 21//21
f 26//26 16//16 17//17
f 26//26 17//17 8//8
f 30//30 14//14 2//2
f 2//2 29//29 30//30
f 2//2 6//6 23//23
f 2//2 14//14 6//6
f 17//17 16//16 15//15
f 19//19 4//4 18//18
f 22//22 21//21 20//20
f 9//9 25//25 24//24
f 27//27 26//26 8//8
f 10//10 28//28 11//11
# 58 faces, 0 coords texture

# End of File
