####
#
# OBJ File Generated by Meshlab
#
####
# Object 4.obj
#
# Vertices: 37
# Faces: 72
#
####
vn 0.083149 0.000246 0.034442
v 0.007500 0.000022 0.006900
vn 0.090000 0.000266 0.000000
v 0.007500 0.000022 -0.006900
vn 0.029959 0.030182 0.079319
v 0.006880 0.006920 0.007500
vn 0.034441 0.000102 0.083149
v 0.006900 0.000020 0.007500
vn 0.034574 0.077049 0.031115
v 0.006987 0.007511 0.006900
vn 0.078893 -0.030508 0.030743
v 0.007520 -0.006878 0.006900
vn 0.038623 0.030018 -0.075546
v 0.007100 0.006921 -0.007458
vn -0.030486 0.077733 -0.033589
v -0.006922 0.007469 -0.007009
vn 0.000750 0.044275 -0.078353
v -0.000021 0.007121 -0.007458
vn 0.000504 0.085953 -0.026681
v -0.000022 0.007500 -0.006900
vn -0.063730 0.063549 -0.000023
v -0.006922 0.007480 0.000000
vn -0.033380 0.080737 0.021619
v -0.006922 0.007480 0.006900
vn 0.000127 0.034059 0.083307
v -0.000020 0.006900 0.007500
vn 0.000209 0.083257 0.034180
v -0.000022 0.007500 0.006900
vn -0.083339 -0.000230 -0.033980
v -0.007500 -0.000022 -0.006900
vn -0.033926 0.000067 -0.083361
v -0.006900 -0.000020 -0.007500
vn -0.089071 -0.000032 0.012900
v -0.007500 -0.000022 0.006900
vn -0.080114 -0.025476 0.032137
v -0.007480 -0.006922 0.006900
vn 0.035112 -0.076855 -0.030990
v 0.007031 -0.007469 -0.006900
vn -0.027926 -0.031807 -0.079426
v -0.006989 -0.006921 -0.007490
vn 0.000208 -0.083153 0.034431
v 0.000022 -0.007500 0.006900
vn -0.000233 -0.034266 0.083221
v 0.000020 -0.006900 0.007500
vn 0.030103 -0.029980 -0.079341
v 0.006920 -0.006880 -0.007500
vn 0.079949 -0.027237 -0.031086
v 0.007520 -0.006878 -0.006900
vn 0.032982 0.078085 -0.030249
v 0.006987 0.007511 -0.006900
vn 0.081928 0.028232 -0.024306
v 0.007480 0.006922 -0.006900
vn 0.079775 0.027606 0.031206
v 0.007480 0.006922 0.006900
vn 0.030833 -0.030652 0.078802
v 0.006920 -0.006880 0.007500
vn 0.030967 -0.078719 0.030731
v 0.006922 -0.007480 0.006900
vn -0.037614 0.027847 -0.076875
v -0.007076 0.006879 -0.007480
vn -0.080775 0.030763 -0.025080
v -0.007520 0.006878 -0.006900
vn -0.073559 0.027045 0.044246
v -0.007423 0.006878 0.007228
vn -0.023199 0.041542 0.076394
v -0.006921 0.007100 0.007458
vn -0.029654 -0.079903 -0.028918
v -0.006878 -0.007520 -0.006900
vn -0.076157 -0.031616 -0.036062
v -0.007437 -0.006922 -0.007121
vn -0.028427 -0.043754 0.073332
v -0.006879 -0.007249 0.007402
vn -0.036218 -0.079432 0.021881
v -0.006987 -0.007511 0.006900
# 37 vertices, 0 vertices normals

f 1//1 6//6 24//24
f 1//1 24//24 2//2
f 2//2 26//26 27//27
f 2//2 27//27 1//1
f 14//14 5//5 25//25
f 14//14 25//25 10//10
f 11//11 10//10 8//8
f 11//11 12//12 14//14
f 10//10 11//11 14//14
f 17//17 32//32 31//31
f 17//17 31//31 15//15
f 15//15 35//35 18//18
f 15//15 18//18 17//17
f 21//21 37//37 34//34
f 29//29 21//21 19//19
f 34//34 19//19 21//21
f 16//16 23//23 20//20
f 30//30 7//7 16//16
f 23//23 16//16 7//7
f 4//4 22//22 28//28
f 36//36 22//22 13//13
f 36//36 13//13 33//33
f 13//13 4//4 3//3
f 4//4 13//13 22//22
f 23//23 7//7 26//26
f 23//23 26//26 24//24
f 2//2 24//24 26//26
f 5//5 27//27 26//26
f 5//5 26//26 25//25
f 4//4 28//28 1//1
f 1//1 28//28 6//6
f 27//27 3//3 1//1
f 3//3 4//4 1//1
f 19//19 24//24 29//29
f 24//24 6//6 29//29
f 10//10 25//25 7//7
f 25//25 8//8 10//10
f 25//25 10//10 8//8
f 9//9 30//30 8//8
f 9//9 8//8 10//10
f 7//7 9//9 10//10
f 7//7 30//30 9//9
f 32//32 12//12 8//8
f 32//32 8//8 31//31
f 11//11 8//8 12//12
f 13//13 3//3 14//14
f 14//14 3//3 5//5
f 12//12 33//33 14//14
f 33//33 13//13 14//14
f 15//15 31//31 30//30
f 15//15 30//30 16//16
f 16//16 35//35 15//15
f 16//16 20//20 35//35
f 37//37 18//18 34//34
f 18//18 35//35 34//34
f 33//33 18//18 36//36
f 33//33 32//32 18//18
f 17//17 18//18 32//32
f 20//20 23//23 34//34
f 34//34 23//23 19//19
f 21//21 22//22 37//37
f 22//22 36//36 37//37
f 22//22 21//21 29//29
f 29//29 28//28 22//22
f 24//24 19//19 23//23
f 26//26 7//7 25//25
f 3//3 27//27 5//5
f 29//29 6//6 28//28
f 30//30 31//31 8//8
f 32//32 33//33 12//12
f 20//20 34//34 35//35
f 18//18 37//37 36//36
# 72 faces, 0 coords texture

# End of File
