####
#
# OBJ File Generated by Meshlab
#
####
# Object 6.obj
#
# Vertices: 38
# Faces: 76
#
####
vn -0.030789 -0.078785 0.030742
v -0.006905 -0.007496 0.014400
vn 0.000016 -0.003930 -0.089914
v -0.000004 -0.006900 -0.015000
vn 0.000064 0.034451 -0.083145
v 0.000005 0.006900 -0.015000
vn -0.034449 0.000061 0.083146
v -0.006900 0.000004 0.015000
vn 0.000248 0.034301 0.083207
v 0.000004 0.006900 0.015000
vn -0.000053 -0.083145 0.034451
v -0.000005 -0.007500 0.014400
vn -0.078819 -0.030700 0.030742
v -0.007505 -0.006896 0.014400
vn 0.083144 -0.000074 -0.034454
v 0.007500 -0.000005 -0.014400
vn 0.034353 0.030029 -0.077577
v 0.007014 0.006896 -0.014990
vn 0.034447 -0.000064 -0.083147
v 0.006900 -0.000004 -0.015000
vn 0.034441 -0.000023 0.083149
v 0.006900 -0.000005 0.015000
vn 0.030760 0.030722 0.078803
v 0.006904 0.006896 0.015000
vn 0.083149 -0.000053 0.034442
v 0.007500 -0.000005 0.014400
vn 0.034160 0.077564 -0.030282
v 0.007014 0.007486 -0.014400
vn 0.000106 0.083149 -0.034442
v 0.000005 0.007500 -0.014400
vn 0.030741 0.078781 0.030798
v 0.006905 0.007496 0.014400
vn 0.000282 0.083204 0.034307
v 0.000005 0.007500 0.014400
vn -0.083145 0.000054 -0.034451
v -0.007500 0.000005 -0.014400
vn -0.078819 -0.030698 -0.030744
v -0.007504 -0.006895 -0.014400
vn -0.034431 0.000024 -0.083154
v -0.006900 0.000005 -0.015000
vn -0.083144 0.000074 0.034454
v -0.007500 0.000005 0.014400
vn -0.030787 -0.078785 -0.030744
v -0.006905 -0.007496 -0.014400
vn -0.030765 -0.030721 -0.078802
v -0.006904 -0.006896 -0.015000
vn 0.079303 -0.030071 -0.030111
v 0.007496 -0.006905 -0.014400
vn 0.031015 -0.034927 -0.076930
v 0.006896 -0.007013 -0.014990
vn 0.031042 -0.079887 -0.027468
v 0.006896 -0.007504 -0.014400
vn 0.030699 -0.078819 0.030743
v 0.006895 -0.007505 0.014400
vn 0.078785 -0.030787 0.030743
v 0.007496 -0.006905 0.014400
vn 0.030724 -0.030761 0.078802
v 0.006896 -0.006905 0.015000
vn -0.030763 -0.030725 0.078801
v -0.006905 -0.006896 0.015000
vn 0.080995 0.027511 -0.027982
v 0.007505 0.006896 -0.014400
vn 0.078816 0.030652 0.030798
v 0.007504 0.006895 0.014400
vn -0.030699 0.078819 -0.030742
v -0.006895 0.007505 -0.014400
vn -0.030724 0.030761 -0.078802
v -0.006896 0.006905 -0.015000
vn -0.078784 0.030788 -0.030743
v -0.007496 0.006905 -0.014400
vn -0.079303 0.030071 0.030111
v -0.007496 0.006905 0.014400
vn -0.031124 0.034827 0.076931
v -0.006896 0.007013 0.014990
vn -0.031160 0.079876 0.027367
v -0.006896 0.007504 0.014400
# 38 vertices, 0 vertices normals

f 6//6 1//1 22//22
f 27//27 6//6 26//26
f 22//22 26//26 6//6
f 28//28 24//24 8//8
f 28//28 8//8 13//13
f 31//31 32//32 13//13
f 31//31 13//13 8//8
f 16//16 14//14 15//15
f 16//16 15//15 17//17
f 33//33 38//38 17//17
f 33//33 17//17 15//15
f 36//36 35//35 18//18
f 36//36 18//18 21//21
f 19//19 7//7 21//21
f 19//19 21//21 18//18
f 20//20 2//2 23//23
f 20//20 34//34 3//3
f 3//3 2//2 20//20
f 2//2 3//3 10//10
f 10//10 3//3 9//9
f 25//25 2//2 10//10
f 5//5 4//4 30//30
f 5//5 37//37 4//4
f 5//5 29//29 11//11
f 11//11 12//12 5//5
f 30//30 29//29 5//5
f 23//23 25//25 26//26
f 23//23 26//26 22//22
f 23//23 2//2 25//25
f 28//28 27//27 26//26
f 28//28 26//26 24//24
f 1//1 6//6 30//30
f 1//1 6//6 27//27
f 1//1 27//27 6//6
f 6//6 27//27 29//29
f 30//30 6//6 29//29
f 19//19 22//22 1//1
f 19//19 1//1 7//7
f 24//24 25//25 8//8
f 8//8 25//25 10//10
f 10//10 31//31 8//8
f 10//10 9//9 31//31
f 16//16 32//32 14//14
f 32//32 31//31 14//14
f 28//28 13//13 29//29
f 29//29 32//32 13//13
f 32//32 29//29 13//13
f 12//12 11//11 13//13
f 29//29 13//13 11//11
f 13//13 32//32 12//12
f 14//14 9//9 15//15
f 15//15 9//9 3//3
f 3//3 33//33 15//15
f 3//3 34//34 33//33
f 36//36 38//38 33//33
f 36//36 33//33 35//35
f 12//12 16//16 17//17
f 5//5 17//17 37//37
f 12//12 17//17 5//5
f 17//17 38//38 37//37
f 18//18 35//35 20//20
f 34//34 20//20 35//35
f 20//20 23//23 18//18
f 19//19 18//18 23//23
f 36//36 21//21 37//37
f 21//21 4//4 37//37
f 4//4 21//21 30//30
f 7//7 30//30 21//21
f 22//22 19//19 23//23
f 25//25 24//24 26//26
f 29//29 27//27 28//28
f 1//1 30//30 7//7
f 9//9 14//14 31//31
f 12//12 32//32 16//16
f 33//33 34//34 35//35
f 36//36 37//37 38//38
# 76 faces, 0 coords texture

# End of File
