####
#
# OBJ File Generated by Meshlab
#
####
# Object 8.obj
#
# Vertices: 114
# Faces: 224
#
####
vn 0.080529 -0.010674 0.038745
v 0.006709 -0.000745 0.006900
vn 0.081381 -0.026486 0.027850
v 0.006423 -0.002076 0.006900
vn 0.073299 -0.038357 0.035439
v 0.005902 -0.003276 0.006900
vn -0.010736 -0.080563 0.038656
v -0.000745 -0.006709 0.006900
vn -0.031596 -0.057305 0.061788
v -0.003276 -0.005902 0.006900
vn -0.050336 -0.041896 0.061733
v -0.005170 -0.004339 0.006900
vn -0.075448 -0.040929 0.027063
v -0.005910 -0.003261 0.006900
vn -0.062681 -0.019409 0.061599
v -0.006444 -0.002009 0.006900
vn -0.081802 0.007028 0.036865
v -0.006709 0.000745 0.006900
vn -0.039467 0.073884 0.032916
v -0.003261 0.005910 0.006900
vn -0.008459 0.083213 0.033227
v -0.000645 0.006719 0.006900
vn 0.007033 0.081877 0.036698
v 0.000745 0.006709 0.006900
vn -0.042407 0.074931 -0.026210
v -0.003261 0.005910 -0.006900
vn -0.041986 0.050239 -0.061751
v -0.004339 0.005171 -0.006900
vn -0.066320 0.054950 -0.026120
v -0.005207 0.004295 -0.006900
vn -0.057390 0.031554 -0.061731
v -0.005902 0.003276 -0.006900
vn -0.061537 -0.052989 -0.038799
v -0.005170 -0.004339 -0.006900
vn 0.053027 -0.061521 -0.038772
v 0.004339 -0.005171 -0.006900
vn 0.064575 -0.053066 -0.033377
v 0.005207 -0.004295 -0.006900
vn 0.065228 -0.007119 -0.061601
v 0.006709 -0.000745 -0.006900
vn 0.050248 0.041923 -0.061787
v 0.005171 0.004339 -0.006900
vn -0.000159 -0.000469 0.089999
v -0.004374 -0.000421 0.007500
vn -0.000399 -0.000483 0.089998
v -0.001977 -0.002397 0.007500
vn 0.000039 -0.000404 0.089999
v 0.000420 -0.004374 0.007500
vn 0.000000 0.000000 0.090000
v -0.002398 0.001976 0.007500
vn 0.000000 0.000000 0.090000
v -0.000001 -0.000001 0.007500
vn 0.000282 -0.000233 0.089999
v 0.002396 -0.001978 0.007500
vn 0.000000 0.000000 0.090000
v -0.000422 0.004372 0.007500
vn 0.000170 0.000206 0.090000
v 0.001975 0.002395 0.007500
vn 0.000246 -0.000431 0.089999
v 0.004372 0.000418 0.007500
vn 0.027880 0.016460 0.083975
v 0.005482 0.002913 0.007500
vn -0.017168 0.035901 0.080724
v -0.002913 0.005480 0.007500
vn -0.003982 0.040306 0.080371
v -0.000594 0.006185 0.007500
vn 0.000000 0.000000 -0.090000
v -0.004374 -0.000421 -0.007500
vn -0.000170 -0.000206 -0.090000
v -0.001977 -0.002397 -0.007500
vn 0.000000 0.000000 -0.090000
v 0.000420 -0.004374 -0.007500
vn -0.000234 0.000419 -0.089999
v -0.002398 0.001976 -0.007500
vn 0.000000 0.000000 -0.090000
v -0.000001 -0.000001 -0.007500
vn 0.000253 0.000020 -0.090000
v 0.002396 -0.001978 -0.007500
vn -0.000470 0.000159 -0.089999
v -0.000422 0.004372 -0.007500
vn 0.000000 0.000000 -0.090000
v 0.001975 0.002395 -0.007500
vn 0.000246 -0.000431 -0.089999
v 0.004372 0.000418 -0.007500
vn 0.039424 0.004897 -0.080758
v 0.006185 0.000594 -0.007500
vn 0.030931 -0.025623 -0.080540
v 0.004794 -0.003953 -0.007500
vn 0.016486 -0.027990 -0.083933
v 0.002913 -0.005481 -0.007500
vn -0.032508 -0.001651 -0.083908
v -0.006185 -0.000594 -0.007500
vn 0.009302 0.030320 -0.084227
v 0.001817 0.005936 -0.007500
vn 0.054452 0.066024 0.027854
v 0.004295 0.005207 0.006900
vn 0.032314 0.001506 0.083985
v 0.006185 0.000594 0.007500
vn 0.048105 -0.013136 0.074922
v 0.006124 -0.001874 0.007458
vn 0.061034 -0.050373 0.042865
v 0.005182 -0.004273 0.007121
vn 0.025262 -0.020832 0.083832
v 0.004794 -0.003953 0.007500
vn 0.041568 -0.074849 0.027745
v 0.003261 -0.005910 0.006900
vn 0.022065 -0.044754 0.074902
v 0.003006 -0.005656 0.007458
vn 0.003145 -0.032724 0.083781
v 0.000594 -0.006185 0.007500
vn -0.025886 -0.081888 0.026912
v -0.002076 -0.006423 0.006900
vn -0.011699 -0.047956 0.075255
v -0.001874 -0.006125 0.007458
vn -0.054910 -0.066326 0.026188
v -0.004295 -0.005207 0.006900
vn -0.031040 -0.037273 0.075811
v -0.004080 -0.004947 0.007458
vn -0.044836 -0.020830 0.075205
v -0.005656 -0.003006 0.007458
vn -0.083363 -0.009159 0.032662
v -0.006719 -0.000645 0.006900
vn -0.039439 -0.005195 0.080731
v -0.006185 -0.000594 0.007500
vn -0.076426 0.023361 0.041393
v -0.006415 0.001963 0.007121
vn -0.030314 0.009278 0.084232
v -0.005935 0.001816 0.007500
vn -0.061342 0.051069 0.041583
v -0.005181 0.004274 0.007121
vn -0.024508 0.020216 0.084206
v -0.004794 0.003954 0.007500
vn 0.023467 0.075665 0.042709
v 0.001963 0.006417 0.007121
vn 0.009718 0.031641 0.083692
v 0.001817 0.005936 0.007500
vn 0.031828 0.038592 0.074817
v 0.004078 0.004944 0.007458
vn 0.061463 0.053075 0.038799
v 0.005171 0.004339 0.006900
vn 0.069455 0.038822 0.042057
v 0.005925 0.003149 0.007121
vn 0.082562 0.025454 0.025210
v 0.006444 0.002009 0.006900
vn 0.079412 0.006140 0.041905
v 0.006685 0.000642 0.007121
vn 0.051629 -0.064700 0.035333
v 0.004339 -0.005171 0.006900
vn 0.025828 -0.077025 0.038730
v 0.002009 -0.006444 0.006900
vn 0.007574 -0.078925 0.042584
v 0.000642 -0.006686 0.007121
vn -0.076004 0.041091 0.025196
v -0.005902 0.003276 0.006900
vn -0.051659 0.064641 0.035395
v -0.004339 0.005171 0.006900
vn -0.019405 0.062682 0.061599
v -0.002009 0.006444 0.006900
vn 0.040364 0.070502 0.038733
v 0.003276 0.005902 0.006900
vn 0.053965 0.064021 -0.033001
v 0.004295 0.005207 -0.006900
vn 0.073198 0.040266 -0.033476
v 0.005910 0.003261 -0.006900
vn 0.035915 0.018281 -0.080473
v 0.005482 0.002913 -0.007500
vn 0.083382 0.008847 -0.032697
v 0.006719 0.000645 -0.006900
vn 0.081244 -0.027468 -0.027294
v 0.006423 -0.002076 -0.006900
vn 0.046640 -0.014728 -0.075550
v 0.006124 -0.001874 -0.007458
vn 0.038894 -0.069415 -0.042058
v 0.003148 -0.005924 -0.007121
vn 0.007647 -0.079672 -0.041157
v 0.000642 -0.006686 -0.007121
vn 0.003037 -0.031612 -0.084211
v 0.000594 -0.006185 -0.007500
vn -0.024893 -0.075561 -0.042081
v -0.001963 -0.006415 -0.007121
vn -0.010850 -0.030485 -0.083982
v -0.001816 -0.005935 -0.007500
vn -0.053629 -0.067214 -0.026575
v -0.004295 -0.005207 -0.006900
vn -0.029330 -0.039597 -0.075312
v -0.004080 -0.004947 -0.007458
vn -0.070769 -0.037587 -0.040975
v -0.005924 -0.003148 -0.007121
vn -0.027806 -0.013985 -0.084447
v -0.005481 -0.002912 -0.007500
vn -0.079948 0.025235 -0.032733
v -0.006423 0.002076 -0.006900
vn -0.038363 0.010001 -0.080798
v -0.005935 0.001816 -0.007500
vn -0.037373 0.031213 -0.075690
v -0.004947 0.004081 -0.007458
vn -0.022803 0.042221 -0.076141
v -0.003006 0.005656 -0.007458
vn -0.007359 0.079878 -0.040808
v -0.000642 0.006685 -0.007121
vn -0.002356 0.031008 -0.084457
v -0.000594 0.006185 -0.007500
vn 0.024047 0.076241 -0.041341
v 0.001963 0.006417 -0.007121
vn 0.026000 0.029942 -0.080793
v 0.003951 0.004791 -0.007500
vn 0.062650 0.019497 -0.061602
v 0.006444 0.002009 -0.006900
vn 0.057305 -0.031596 -0.061788
v 0.005902 -0.003276 -0.006900
vn 0.025438 -0.082548 -0.025275
v 0.002009 -0.006444 -0.006900
vn -0.009309 -0.085901 -0.025185
v -0.000745 -0.006709 -0.006900
vn -0.040352 -0.070422 -0.038891
v -0.003276 -0.005902 -0.006900
vn -0.082553 -0.025439 -0.025256
v -0.006444 -0.002009 -0.006900
vn -0.079405 -0.006213 -0.041908
v -0.006686 -0.000642 -0.007121
vn -0.080514 0.010742 -0.038756
v -0.006709 0.000745 -0.006900
vn -0.025805 0.077017 -0.038762
v -0.002009 0.006444 -0.006900
vn 0.009273 0.085904 -0.025189
v 0.000745 0.006709 -0.006900
vn 0.040364 0.070502 -0.038733
v 0.003276 0.005902 -0.006900
# 114 vertices, 0 vertices normals

f 48//48 70//70 21//21
f 48//48 21//21 81//81
f 71//71 72//72 104//104
f 71//71 104//104 82//82
f 70//70 71//71 82//82
f 70//70 82//82 21//21
f 73//73 1//1 20//20
f 73//73 20//20 84//84
f 2//2 3//3 105//105
f 2//2 105//105 85//85
f 1//1 2//2 85//85
f 1//1 85//85 20//20
f 72//72 73//73 84//84
f 72//72 84//84 104//104
f 51//51 74//74 18//18
f 51//51 18//18 19//19
f 53//53 75//75 106//106
f 53//53 106//106 87//87
f 74//74 53//53 87//87
f 74//74 87//87 18//18
f 76//76 4//4 107//107
f 76//76 107//107 88//88
f 56//56 5//5 108//108
f 56//56 108//108 90//90
f 4//4 56//56 90//90
f 4//4 90//90 107//107
f 75//75 76//76 88//88
f 75//75 88//88 106//106
f 3//3 51//51 19//19
f 3//3 19//19 105//105
f 92//92 108//108 5//5
f 92//92 5//5 58//58
f 58//58 6//6 17//17
f 58//58 17//17 92//92
f 7//7 8//8 109//109
f 7//7 109//109 94//94
f 6//6 7//7 94//94
f 6//6 94//94 17//17
f 61//61 9//9 111//111
f 61//61 111//111 110//110
f 63//63 77//77 16//16
f 63//63 16//16 96//96
f 9//9 63//63 96//96
f 9//9 96//96 111//111
f 8//8 61//61 110//110
f 8//8 110//110 109//109
f 65//65 78//78 14//14
f 65//65 14//14 15//15
f 10//10 79//79 112//112
f 10//10 112//112 13//13
f 78//78 10//10 13//13
f 78//78 13//13 14//14
f 11//11 12//12 113//113
f 11//11 113//113 100//100
f 67//67 80//80 114//114
f 67//67 114//114 102//102
f 12//12 67//67 102//102
f 12//12 102//102 113//113
f 79//79 11//11 100//100
f 79//79 100//100 112//112
f 77//77 65//65 15//15
f 77//77 15//15 16//16
f 81//81 114//114 80//80
f 81//81 80//80 48//48
f 26//26 25//25 22//22
f 26//26 22//22 23//23
f 27//27 26//26 23//23
f 27//27 23//23 24//24
f 29//29 28//28 25//25
f 29//29 25//25 26//26
f 30//30 29//29 26//26
f 30//30 26//26 27//27
f 22//22 62//62 60//60
f 64//64 62//62 22//22
f 23//23 22//22 60//60
f 64//64 22//22 25//25
f 66//66 64//64 25//25
f 59//59 23//23 60//60
f 55//55 24//24 57//57
f 23//23 59//59 57//57
f 54//54 27//27 24//24
f 24//24 23//23 57//57
f 52//52 27//27 54//54
f 55//55 54//54 24//24
f 25//25 28//28 32//32
f 33//33 32//32 28//28
f 29//29 68//68 28//28
f 33//33 28//28 68//68
f 69//69 68//68 29//29
f 52//52 50//50 27//27
f 50//50 30//30 27//27
f 49//49 30//30 50//50
f 49//49 31//31 30//30
f 31//31 29//29 30//30
f 31//31 69//69 29//29
f 25//25 32//32 66//66
f 38//38 35//35 34//34
f 38//38 34//34 37//37
f 39//39 36//36 35//35
f 39//39 35//35 38//38
f 41//41 38//38 37//37
f 41//41 37//37 40//40
f 42//42 39//39 38//38
f 42//42 38//38 41//41
f 34//34 95//95 46//46
f 97//97 34//34 46//46
f 35//35 95//95 34//34
f 97//97 37//37 34//34
f 98//98 37//37 97//97
f 93//93 95//95 35//35
f 89//89 91//91 36//36
f 35//35 91//91 93//93
f 45//45 36//36 39//39
f 36//36 91//91 35//35
f 44//44 45//45 39//39
f 89//89 36//36 45//45
f 37//37 99//99 40//40
f 101//101 40//40 99//99
f 41//41 40//40 47//47
f 101//101 47//47 40//40
f 103//103 41//41 47//47
f 44//44 39//39 86//86
f 86//86 39//39 42//42
f 43//43 86//86 42//42
f 43//43 42//42 83//83
f 83//83 42//42 41//41
f 83//83 41//41 103//103
f 37//37 98//98 99//99
f 31//31 71//71 48//48
f 31//31 48//48 69//69
f 49//49 73//73 71//71
f 49//49 71//71 31//31
f 2//2 73//73 49//49
f 50//50 2//2 49//49
f 52//52 51//51 2//2
f 52//52 2//2 50//50
f 53//53 51//51 52//52
f 54//54 53//53 52//52
f 55//55 76//76 53//53
f 55//55 53//53 54//54
f 56//56 76//76 55//55
f 57//57 56//56 55//55
f 59//59 58//58 56//56
f 59//59 56//56 57//57
f 60//60 7//7 58//58
f 60//60 58//58 59//59
f 62//62 61//61 7//7
f 62//62 7//7 60//60
f 63//63 61//61 62//62
f 32//32 10//10 65//65
f 33//33 11//11 10//10
f 33//33 10//10 32//32
f 68//68 67//67 11//11
f 68//68 11//11 33//33
f 48//48 67//67 68//68
f 69//69 48//48 68//68
f 71//71 70//70 48//48
f 2//2 1//1 73//73
f 72//72 71//71 73//73
f 51//51 3//3 2//2
f 4//4 76//76 56//56
f 5//5 56//56 58//58
f 76//76 75//75 53//53
f 53//53 74//74 51//51
f 61//61 8//8 7//7
f 9//9 61//61 63//63
f 65//65 77//77 63//63
f 11//11 79//79 10//10
f 65//65 10//10 78//78
f 63//63 62//62 64//64
f 65//65 63//63 64//64
f 65//65 64//64 66//66
f 66//66 32//32 65//65
f 80//80 67//67 48//48
f 67//67 12//12 11//11
f 6//6 58//58 7//7
f 82//82 103//103 81//81
f 83//83 103//103 82//82
f 43//43 83//83 82//82
f 43//43 82//82 84//84
f 86//86 43//43 84//84
f 86//86 84//84 85//85
f 44//44 86//86 85//85
f 44//44 85//85 19//19
f 45//45 19//19 87//87
f 45//45 44//44 19//19
f 88//88 45//45 87//87
f 91//91 88//88 90//90
f 92//92 91//91 90//90
f 93//93 91//91 92//92
f 94//94 93//93 92//92
f 46//46 94//94 110//110
f 96//96 46//46 110//110
f 97//97 46//46 96//96
f 98//98 97//97 96//96
f 98//98 96//96 15//15
f 99//99 98//98 15//15
f 99//99 15//15 13//13
f 100//100 99//99 13//13
f 47//47 100//100 102//102
f 103//103 47//47 102//102
f 103//103 102//102 81//81
f 82//82 81//81 21//21
f 85//85 84//84 20//20
f 104//104 84//84 82//82
f 19//19 85//85 105//105
f 107//107 90//90 88//88
f 108//108 92//92 90//90
f 88//88 87//87 106//106
f 45//45 88//88 89//89
f 91//91 89//89 88//88
f 87//87 19//19 18//18
f 110//110 94//94 109//109
f 111//111 96//96 110//110
f 15//15 96//96 16//16
f 100//100 13//13 112//112
f 15//15 14//14 13//13
f 94//94 95//95 93//93
f 46//46 95//95 94//94
f 114//114 81//81 102//102
f 102//102 100//100 113//113
f 100//100 101//101 99//99
f 101//101 100//100 47//47
f 17//17 94//94 92//92
# 224 faces, 0 coords texture

# End of File
